<svg width="509" height="642" viewBox="0 0 509 642" fill="none" xmlns="http://www.w3.org/2000/svg">
<g filter="url(#filter0_dddddd_19_86)">
<rect x="80" y="389" width="217" height="73" rx="12" fill="white"/>
</g>
<path d="M95.798 409.712C95.798 409.796 95.854 409.852 95.938 409.852H97.212V417.86C97.212 417.944 97.268 418 97.352 418H98.752C98.836 418 98.892 417.944 98.892 417.86V408.438C98.892 408.354 98.836 408.284 98.752 408.284H95.938C95.854 408.284 95.798 408.354 95.798 408.438V409.712ZM100.319 413.142C100.319 416.138 101.747 418.126 103.875 418.126C106.003 418.126 107.417 416.138 107.417 413.142C107.417 410.146 106.003 408.158 103.875 408.158C101.747 408.158 100.319 410.146 100.319 413.142ZM101.999 413.142C101.999 411.154 102.741 409.824 103.875 409.824C104.981 409.824 105.737 411.154 105.737 413.142C105.737 415.13 104.995 416.46 103.875 416.46C102.741 416.46 101.999 415.144 101.999 413.142ZM108.673 413.142C108.673 416.138 110.101 418.126 112.229 418.126C114.357 418.126 115.771 416.138 115.771 413.142C115.771 410.146 114.357 408.158 112.229 408.158C110.101 408.158 108.673 410.146 108.673 413.142ZM110.353 413.142C110.353 411.154 111.095 409.824 112.229 409.824C113.335 409.824 114.091 411.154 114.091 413.142C114.091 415.13 113.349 416.46 112.229 416.46C111.095 416.46 110.353 415.144 110.353 413.142ZM117.026 413.142C117.026 416.138 118.454 418.126 120.582 418.126C122.71 418.126 124.124 416.138 124.124 413.142C124.124 410.146 122.71 408.158 120.582 408.158C118.454 408.158 117.026 410.146 117.026 413.142ZM118.706 413.142C118.706 411.154 119.448 409.824 120.582 409.824C121.688 409.824 122.444 411.154 122.444 413.142C122.444 415.13 121.702 416.46 120.582 416.46C119.448 416.46 118.706 415.144 118.706 413.142ZM125.758 420.366C125.8 420.408 125.842 420.422 125.898 420.422C125.926 420.422 125.94 420.422 125.968 420.408C126.92 419.904 127.76 418.21 127.55 416.894C127.508 416.348 127.102 415.984 126.542 415.984C125.912 415.998 125.506 416.404 125.506 417.048C125.506 417.58 125.814 417.958 126.304 418.042C126.318 418.056 126.332 418.056 126.36 418.056C126.192 418.798 125.674 419.372 125.24 419.708C125.17 419.764 125.156 419.848 125.212 419.904L125.758 420.366ZM128.812 413.142C128.812 416.138 130.24 418.126 132.368 418.126C134.496 418.126 135.91 416.138 135.91 413.142C135.91 410.146 134.496 408.158 132.368 408.158C130.24 408.158 128.812 410.146 128.812 413.142ZM130.492 413.142C130.492 411.154 131.234 409.824 132.368 409.824C133.474 409.824 134.23 411.154 134.23 413.142C134.23 415.13 133.488 416.46 132.368 416.46C131.234 416.46 130.492 415.144 130.492 413.142ZM137.165 413.142C137.165 416.138 138.593 418.126 140.721 418.126C142.849 418.126 144.263 416.138 144.263 413.142C144.263 410.146 142.849 408.158 140.721 408.158C138.593 408.158 137.165 410.146 137.165 413.142ZM138.845 413.142C138.845 411.154 139.587 409.824 140.721 409.824C141.827 409.824 142.583 411.154 142.583 413.142C142.583 415.13 141.841 416.46 140.721 416.46C139.587 416.46 138.845 415.144 138.845 413.142ZM145.519 413.142C145.519 416.138 146.947 418.126 149.075 418.126C151.203 418.126 152.617 416.138 152.617 413.142C152.617 410.146 151.203 408.158 149.075 408.158C146.947 408.158 145.519 410.146 145.519 413.142ZM147.199 413.142C147.199 411.154 147.941 409.824 149.075 409.824C150.181 409.824 150.937 411.154 150.937 413.142C150.937 415.13 150.195 416.46 149.075 416.46C147.941 416.46 147.199 415.144 147.199 413.142ZM157.918 418H159.318C159.402 418 159.458 417.944 159.458 417.86V413.828H163.616V417.86C163.616 417.944 163.672 418 163.742 418H165.156C165.24 418 165.296 417.944 165.296 417.86V408.41C165.296 408.34 165.24 408.284 165.17 408.284H163.756C163.672 408.284 163.616 408.34 163.616 408.424V412.386H159.458V408.41C159.458 408.34 159.402 408.284 159.332 408.284H157.918C157.834 408.284 157.778 408.34 157.778 408.424V417.86C157.778 417.944 157.834 418 157.918 418ZM172.137 412.316C171.675 411.672 170.961 411.308 170.037 411.308C168.062 411.308 166.733 412.68 166.733 414.724C166.733 416.754 168.062 418.168 170.037 418.154C170.961 418.154 171.675 417.776 172.137 417.118L172.333 417.86C172.361 417.944 172.403 418 172.487 418H173.565C173.649 418 173.704 417.93 173.704 417.86V411.56C173.704 411.476 173.649 411.42 173.565 411.42H172.501C172.417 411.42 172.375 411.476 172.347 411.56L172.137 412.316ZM168.315 414.724C168.315 413.618 169.043 412.89 170.135 412.89C171.241 412.89 171.997 413.618 172.011 414.724C171.997 415.83 171.241 416.572 170.135 416.572C169.057 416.572 168.315 415.816 168.315 414.724ZM175.495 421.192H176.811C176.895 421.192 176.951 421.136 176.951 421.052V417.258C177.399 417.832 178.071 418.154 178.925 418.154C180.913 418.154 182.243 416.768 182.243 414.724C182.243 412.68 180.913 411.28 178.925 411.28C177.987 411.28 177.273 411.658 176.811 412.33L176.601 411.56C176.573 411.49 176.517 411.42 176.419 411.42H175.495C175.411 411.42 175.355 411.476 175.355 411.574V421.052C175.355 421.136 175.411 421.192 175.495 421.192ZM176.965 414.71C176.965 413.618 177.721 412.862 178.827 412.862C179.919 412.862 180.661 413.618 180.661 414.724C180.661 415.83 179.919 416.558 178.827 416.558C177.721 416.558 176.965 415.816 176.965 414.71ZM183.63 421.192H184.946C185.03 421.192 185.086 421.136 185.086 421.052V417.258C185.534 417.832 186.206 418.154 187.06 418.154C189.048 418.154 190.378 416.768 190.378 414.724C190.378 412.68 189.048 411.28 187.06 411.28C186.122 411.28 185.408 411.658 184.946 412.33L184.736 411.56C184.708 411.49 184.652 411.42 184.554 411.42H183.63C183.546 411.42 183.49 411.476 183.49 411.574V421.052C183.49 421.136 183.546 421.192 183.63 421.192ZM185.1 414.71C185.1 413.618 185.856 412.862 186.962 412.862C188.054 412.862 188.796 413.618 188.796 414.724C188.796 415.83 188.054 416.558 186.962 416.558C185.856 416.558 185.1 415.816 185.1 414.71ZM190.869 411.616L193.403 417.958L192.199 421.01C192.157 421.108 192.199 421.192 192.325 421.192H193.669C193.753 421.192 193.823 421.136 193.851 421.066L197.617 411.616C197.659 411.504 197.617 411.434 197.491 411.434H196.119C196.035 411.434 195.965 411.476 195.937 411.56L194.173 415.998L192.577 411.56C192.549 411.476 192.479 411.434 192.395 411.434H190.981C190.883 411.434 190.827 411.504 190.869 411.616ZM210.149 416.852C210.205 416.796 210.191 416.726 210.149 416.656L209.309 415.592C209.295 415.564 209.253 415.55 209.225 415.55C209.183 415.55 209.141 415.564 209.113 415.592C208.553 416.054 207.741 416.474 206.649 416.474C204.689 416.474 203.373 415.144 203.373 413.156C203.373 411.14 204.689 409.81 206.649 409.81C207.797 409.81 208.567 410.23 209.113 410.706C209.141 410.734 209.183 410.748 209.211 410.748C209.253 410.748 209.295 410.734 209.309 410.706L210.121 409.642C210.177 409.586 210.177 409.516 210.121 409.46C209.183 408.578 207.937 408.158 206.649 408.158C204.171 408.158 201.693 409.824 201.693 413.156C201.693 416.11 203.681 418.14 206.649 418.14C207.951 418.14 209.211 417.748 210.149 416.852ZM213.032 408.032C213.032 407.948 212.976 407.892 212.892 407.892H211.576C211.492 407.892 211.436 407.948 211.436 408.032L211.45 417.86C211.45 417.944 211.506 418 211.576 418H212.906C212.976 418 213.032 417.944 213.032 417.86V408.032ZM216.327 411.56C216.327 411.476 216.271 411.434 216.187 411.434H214.885C214.787 411.42 214.731 411.49 214.731 411.574V417.86C214.731 417.944 214.787 418 214.871 418H216.187C216.271 418 216.327 417.944 216.327 417.86V411.56ZM214.493 409.194C214.493 409.81 214.913 410.23 215.529 410.23C216.159 410.23 216.551 409.81 216.551 409.194C216.551 408.578 216.159 408.172 215.529 408.172C214.913 408.172 214.493 408.578 214.493 409.194ZM219.258 414.164C219.426 413.352 220.028 412.806 220.994 412.806C221.96 412.806 222.562 413.352 222.73 414.164H219.258ZM219.286 415.354H224.256C224.354 415.354 224.396 415.298 224.396 415.214C224.41 412.54 223.052 411.308 220.994 411.308C218.964 411.308 217.592 412.68 217.592 414.724C217.592 416.768 218.992 418.154 221.078 418.14C222.212 418.14 223.122 417.846 223.738 417.188C223.794 417.118 223.78 417.034 223.724 416.978L222.898 416.124C222.87 416.096 222.842 416.082 222.8 416.082C222.758 416.082 222.716 416.096 222.66 416.138C222.352 416.432 221.834 416.642 221.162 416.656C220.154 416.656 219.496 416.124 219.286 415.354ZM225.64 417.86C225.64 417.944 225.696 418 225.78 418H227.096C227.166 418 227.236 417.944 227.236 417.86V414.808C227.278 413.87 227.726 412.876 228.804 412.876C229.574 412.876 230.12 413.394 230.12 414.5V417.86C230.12 417.944 230.176 418 230.26 418H231.576C231.66 418 231.716 417.944 231.716 417.86V414.206C231.716 412.344 230.694 411.266 229.21 411.266C228.244 411.266 227.558 411.672 227.138 412.33L226.984 411.574C226.97 411.49 226.914 411.434 226.816 411.434H225.78C225.696 411.434 225.64 411.49 225.64 411.574V417.86ZM232.736 412.764C232.736 412.848 232.792 412.904 232.876 412.904H233.758V415.858C233.744 417.286 234.43 418.126 235.606 418.126C236.096 418.126 236.642 417.986 237.034 417.678C237.104 417.636 237.118 417.552 237.076 417.454L236.642 416.334C236.628 416.292 236.572 416.264 236.53 416.264C236.502 416.264 236.474 416.264 236.446 416.278C236.348 416.362 236.096 416.516 235.886 416.516C235.452 416.516 235.34 416.18 235.34 415.046V412.904H236.684C236.768 412.904 236.824 412.848 236.824 412.764V411.56C236.824 411.49 236.768 411.434 236.684 411.434H235.34V409.39C235.34 409.306 235.284 409.25 235.2 409.25H233.898C233.814 409.25 233.772 409.306 233.772 409.39L233.758 411.434H232.876C232.792 411.434 232.736 411.49 232.736 411.56V412.764ZM237.678 417.412C237.93 417.608 238.91 418.126 240.212 418.126C241.766 418.14 242.816 417.328 242.788 416.026C242.746 414.864 241.962 414.374 240.506 414.024C239.666 413.828 239.26 413.66 239.246 413.282C239.246 413.002 239.638 412.764 240.226 412.764C240.31 412.764 240.38 412.764 240.464 412.778C241.15 412.848 241.598 413.128 241.794 413.24C241.822 413.254 241.85 413.254 241.878 413.254C241.92 413.254 241.976 413.226 241.99 413.184L242.522 412.176C242.564 412.106 242.536 412.022 242.48 411.966C242.256 411.798 241.43 411.294 240.296 411.28C238.812 411.266 237.608 412.022 237.664 413.338C237.692 414.346 238.35 414.934 239.68 415.298C240.59 415.564 241.192 415.718 241.192 416.138C241.192 416.628 240.296 416.656 239.974 416.656C239.232 416.6 238.658 416.292 238.364 416.124C238.336 416.11 238.308 416.096 238.28 416.096C238.238 416.096 238.196 416.124 238.168 416.166L237.636 417.216C237.594 417.286 237.608 417.37 237.678 417.412Z" fill="black"/>
<path d="M117.565 440.212H121.513V441.88C121.513 441.952 121.561 442 121.633 442H122.833C122.905 442 122.953 441.952 122.953 441.88V440.212H123.781C123.853 440.212 123.901 440.164 123.901 440.092V439.096C123.901 439.024 123.853 438.976 123.781 438.976H122.953V433.804C122.953 433.732 122.905 433.684 122.833 433.684L121.453 433.672C121.381 433.672 121.309 433.72 121.273 433.78L117.481 440.056C117.421 440.152 117.457 440.212 117.565 440.212ZM121.513 435.772V438.976H119.581L121.513 435.772ZM125.261 441.28C125.261 441.772 125.597 442.12 126.101 442.12C126.593 442.12 126.929 441.772 126.929 441.28C126.929 440.776 126.593 440.44 126.101 440.44C125.597 440.44 125.261 440.776 125.261 441.28ZM131.341 441.892L133.225 437.824C133.465 437.296 133.621 436.888 133.621 436.264C133.621 434.632 132.529 433.552 130.909 433.552C129.277 433.552 128.209 434.62 128.209 436.264C128.209 437.86 129.265 438.904 130.873 438.928C130.981 438.928 131.113 438.916 131.233 438.88L129.865 441.832C129.817 441.928 129.865 442 129.961 442H131.161C131.245 442 131.305 441.952 131.341 441.892ZM130.909 437.56C130.141 437.56 129.625 437.032 129.625 436.252C129.625 435.484 130.153 434.968 130.909 434.968C131.689 434.968 132.205 435.484 132.205 436.252C132.205 437.032 131.677 437.56 130.909 437.56Z" fill="black"/>
<path d="M144.065 433.78C143.789 434.248 142.697 436.264 142.697 438.808C142.697 441.472 143.789 443.368 144.065 443.812C144.101 443.872 144.173 443.92 144.257 443.92H145.013C145.085 443.92 145.109 443.884 145.061 443.824C144.785 443.368 143.669 441.472 143.693 438.808C143.693 436.264 144.797 434.248 145.073 433.78C145.109 433.72 145.085 433.684 145.013 433.672H144.257C144.173 433.672 144.101 433.72 144.065 433.78ZM146.5 434.512C146.5 434.584 146.56 434.632 146.632 434.632H147.712V441.88C147.712 441.952 147.76 442 147.832 442H148.624C148.696 442 148.744 441.952 148.744 441.88V433.804C148.744 433.732 148.696 433.672 148.624 433.672H146.632C146.56 433.672 146.512 433.732 146.5 433.804V434.512ZM151.808 434.632H154.76C154.832 434.632 154.88 434.584 154.88 434.512V433.804C154.88 433.732 154.832 433.672 154.76 433.672H151.004C150.932 433.672 150.872 433.732 150.872 433.804L150.56 438.148C150.548 438.22 150.596 438.268 150.668 438.268H151.544C151.784 437.992 152.228 437.824 152.744 437.824C153.764 437.824 154.412 438.544 154.412 439.492C154.412 440.452 153.776 441.184 152.816 441.184C151.916 441.184 151.28 440.632 151.232 439.84C151.22 439.768 151.172 439.72 151.1 439.72H150.308C150.236 439.72 150.188 439.768 150.188 439.84C150.248 441.256 151.28 442.192 152.816 442.192C154.412 442.192 155.456 441.052 155.456 439.492C155.456 437.956 154.388 436.864 152.792 436.864C152.3 436.864 151.904 437.008 151.628 437.164L151.808 434.632ZM157.015 442H157.759C157.831 442 157.879 441.952 157.879 441.892V439.336L160.375 441.94C160.411 441.976 160.471 442 160.531 442H161.563C161.695 442 161.731 441.94 161.635 441.844L158.971 439.084L161.239 436.744C161.335 436.648 161.323 436.576 161.179 436.576H160.135C160.087 436.576 160.027 436.612 159.991 436.648L157.879 438.904V433.444C157.879 433.384 157.831 433.336 157.759 433.336H157.015C156.943 433.336 156.907 433.384 156.907 433.444V441.892C156.907 441.952 156.955 442 157.015 442ZM165.618 441.88C165.618 441.952 165.666 442 165.738 442H166.542C166.614 442 166.662 441.952 166.662 441.88V438.532H167.802L169.842 441.94C169.866 441.976 169.914 442 169.962 442H170.946C171.042 442 171.078 441.952 171.018 441.856L168.87 438.472C170.19 438.28 170.958 437.416 170.97 436.096C170.958 434.596 169.962 433.672 168.294 433.672C167.73 433.672 167.154 433.672 166.578 433.672C166.29 433.672 166.014 433.672 165.726 433.672C165.666 433.672 165.618 433.72 165.618 433.792V441.88ZM166.662 437.56V434.632H168.318C169.326 434.632 169.926 435.172 169.926 436.108C169.926 437.116 169.266 437.56 168.318 437.56H166.662ZM172.823 438.892C172.967 437.992 173.651 437.392 174.647 437.392C175.643 437.392 176.315 437.992 176.459 438.892H172.823ZM172.835 439.696H177.347C177.419 439.696 177.455 439.648 177.455 439.576C177.467 437.572 176.399 436.456 174.647 436.456C172.967 436.456 171.827 437.608 171.827 439.288C171.827 440.98 173.003 442.12 174.755 442.12C175.691 442.12 176.459 441.832 176.951 441.28C176.999 441.232 176.999 441.16 176.939 441.112L176.447 440.632C176.423 440.608 176.399 440.584 176.363 440.584C176.327 440.584 176.291 440.608 176.255 440.644C175.931 440.98 175.415 441.184 174.779 441.184C173.723 441.184 172.991 440.596 172.835 439.696ZM183.372 436.732C183.408 436.648 183.372 436.588 183.264 436.588L182.436 436.576C182.364 436.588 182.316 436.624 182.292 436.684L180.672 440.872L179.04 436.672C179.016 436.612 178.968 436.576 178.908 436.576H178.068C177.972 436.576 177.936 436.648 177.972 436.732L180.096 441.892C180.132 441.964 180.192 442 180.264 442H181.068C181.14 442 181.212 441.964 181.236 441.892L183.372 436.732ZM185.254 436.696C185.254 436.624 185.218 436.576 185.146 436.576H184.402C184.342 436.576 184.294 436.624 184.294 436.696V441.88C184.294 441.952 184.342 442 184.402 442H185.146C185.218 442 185.266 441.952 185.266 441.88L185.254 436.696ZM184.078 434.572C184.078 434.992 184.366 435.28 184.786 435.28C185.194 435.28 185.47 434.992 185.47 434.572C185.47 434.152 185.194 433.888 184.786 433.888C184.366 433.888 184.078 434.152 184.078 434.572ZM187.519 438.892C187.663 437.992 188.347 437.392 189.343 437.392C190.339 437.392 191.011 437.992 191.155 438.892H187.519ZM187.531 439.696H192.043C192.115 439.696 192.151 439.648 192.151 439.576C192.163 437.572 191.095 436.456 189.343 436.456C187.663 436.456 186.523 437.608 186.523 439.288C186.523 440.98 187.699 442.12 189.451 442.12C190.387 442.12 191.155 441.832 191.647 441.28C191.695 441.232 191.695 441.16 191.635 441.112L191.143 440.632C191.119 440.608 191.095 440.584 191.059 440.584C191.023 440.584 190.987 440.608 190.951 440.644C190.627 440.98 190.111 441.184 189.475 441.184C188.419 441.184 187.687 440.596 187.531 439.696ZM192.655 436.684L194.191 441.904C194.203 441.964 194.263 442 194.323 442H195.151C195.223 442 195.271 441.964 195.295 441.904L196.435 437.848L197.563 441.904C197.587 441.964 197.635 442 197.707 442H198.547C198.607 442 198.655 441.964 198.679 441.904L200.215 436.696C200.227 436.624 200.191 436.588 200.131 436.588H199.255C199.207 436.588 199.147 436.624 199.123 436.684L198.103 440.812L196.939 436.684C196.915 436.624 196.855 436.588 196.795 436.588H196.075C196.015 436.588 195.955 436.624 195.931 436.684L194.767 440.764L193.735 436.684C193.723 436.624 193.675 436.588 193.603 436.588H192.727C192.667 436.588 192.643 436.624 192.655 436.684ZM200.726 441.52C200.942 441.688 201.638 442.108 202.694 442.108C203.966 442.12 204.818 441.46 204.794 440.452C204.758 439.54 204.146 439.144 202.946 438.832C202.082 438.592 201.734 438.424 201.734 437.992C201.734 437.476 202.442 437.38 202.826 437.38C203.426 437.392 203.858 437.656 204.05 437.776C204.074 437.788 204.098 437.8 204.122 437.8C204.158 437.8 204.194 437.776 204.218 437.74L204.506 437.152C204.542 437.08 204.518 437.008 204.47 436.972C204.278 436.828 203.69 436.456 202.802 436.444C201.602 436.432 200.738 437.08 200.762 438.064C200.786 438.916 201.314 439.372 202.514 439.696C203.366 439.924 203.81 440.092 203.81 440.536C203.81 441.088 203.066 441.184 202.658 441.184C201.95 441.172 201.41 440.872 201.182 440.728C201.158 440.716 201.134 440.704 201.11 440.704C201.074 440.704 201.038 440.728 201.026 440.764L200.702 441.34C200.654 441.412 200.678 441.484 200.726 441.52ZM205.877 433.672C205.805 433.672 205.781 433.72 205.817 433.78C206.105 434.248 207.209 436.264 207.197 438.808C207.221 441.472 206.105 443.368 205.829 443.824C205.793 443.884 205.805 443.92 205.877 443.92H206.645C206.717 443.92 206.789 443.872 206.825 443.812C207.101 443.368 208.193 441.472 208.193 438.808C208.193 436.264 207.101 434.248 206.825 433.78C206.789 433.72 206.717 433.672 206.645 433.672H205.877Z" fill="#8A898E"/>
<path d="M106.276 438.373C106.092 438.55 106.008 438.807 106.05 439.06L106.68 442.545C106.733 442.84 106.608 443.139 106.361 443.31C106.119 443.487 105.796 443.508 105.532 443.366L102.395 441.73C102.286 441.672 102.165 441.641 102.041 441.637H101.849C101.782 441.647 101.717 441.668 101.658 441.701L98.5196 443.345C98.3645 443.423 98.1888 443.451 98.0167 443.423C97.5974 443.344 97.3176 442.944 97.3863 442.523L98.0167 439.038C98.0585 438.783 97.9742 438.525 97.7907 438.344L95.233 435.865C95.019 435.657 94.9447 435.346 95.0424 435.065C95.1373 434.784 95.3796 434.579 95.6721 434.533L99.1925 434.023C99.4603 433.995 99.6955 433.832 99.8159 433.591L101.367 430.411C101.404 430.34 101.451 430.275 101.509 430.22L101.573 430.17C101.606 430.133 101.644 430.103 101.687 430.078L101.764 430.05L101.884 430H102.182C102.449 430.028 102.683 430.187 102.806 430.425L104.378 433.591C104.491 433.823 104.711 433.984 104.965 434.023L108.486 434.533C108.783 434.576 109.032 434.781 109.13 435.065C109.223 435.349 109.143 435.66 108.925 435.865L106.276 438.373Z" fill="#FEBB43"/>
<g filter="url(#filter1_dddddd_19_86)">
<rect x="154" width="275" height="73" rx="12" fill="white"/>
</g>
<path d="M227.798 20.712C227.798 20.796 227.854 20.852 227.938 20.852H229.212V28.86C229.212 28.944 229.268 29 229.352 29H230.752C230.836 29 230.892 28.944 230.892 28.86V19.438C230.892 19.354 230.836 19.284 230.752 19.284H227.938C227.854 19.284 227.798 19.354 227.798 19.438V20.712ZM232.319 24.142C232.319 27.138 233.747 29.126 235.875 29.126C238.003 29.126 239.417 27.138 239.417 24.142C239.417 21.146 238.003 19.158 235.875 19.158C233.747 19.158 232.319 21.146 232.319 24.142ZM233.999 24.142C233.999 22.154 234.741 20.824 235.875 20.824C236.981 20.824 237.737 22.154 237.737 24.142C237.737 26.13 236.995 27.46 235.875 27.46C234.741 27.46 233.999 26.144 233.999 24.142ZM240.673 24.142C240.673 27.138 242.101 29.126 244.229 29.126C246.357 29.126 247.771 27.138 247.771 24.142C247.771 21.146 246.357 19.158 244.229 19.158C242.101 19.158 240.673 21.146 240.673 24.142ZM242.353 24.142C242.353 22.154 243.095 20.824 244.229 20.824C245.335 20.824 246.091 22.154 246.091 24.142C246.091 26.13 245.349 27.46 244.229 27.46C243.095 27.46 242.353 26.144 242.353 24.142ZM248.69 21.314C248.69 22.756 249.656 23.708 251.098 23.708C252.54 23.708 253.492 22.756 253.492 21.314C253.492 19.858 252.54 18.906 251.098 18.906C249.656 18.906 248.69 19.858 248.69 21.314ZM250.146 21.314C250.146 20.74 250.524 20.362 251.098 20.362C251.658 20.362 252.036 20.74 252.036 21.314C252.036 21.874 251.658 22.252 251.098 22.252C250.524 22.252 250.146 21.874 250.146 21.314ZM255.928 26.732C255.928 26.172 256.306 25.794 256.88 25.794C257.44 25.794 257.818 26.172 257.818 26.732C257.818 27.306 257.44 27.684 256.88 27.684C256.306 27.684 255.928 27.306 255.928 26.732ZM254.472 26.746C254.472 28.188 255.438 29.14 256.88 29.14C258.322 29.14 259.274 28.188 259.274 26.746C259.274 25.29 258.322 24.338 256.88 24.338C255.438 24.338 254.472 25.29 254.472 26.746ZM250.496 28.818C250.426 28.93 250.468 29 250.608 29H251.896C251.966 29 252.05 28.958 252.078 28.902L257.636 19.046C257.692 18.962 257.636 18.892 257.524 18.892H256.222C256.152 18.892 256.082 18.92 256.04 18.99L250.496 28.818ZM263.983 29H267.455C269.471 29 270.773 27.838 270.745 26.102C270.731 24.968 270.143 24.128 269.163 23.68C269.793 23.232 270.157 22.588 270.143 21.846C270.129 20.278 268.911 19.284 267.021 19.284H263.983C263.899 19.284 263.843 19.34 263.843 19.438L263.829 28.86C263.829 28.944 263.899 29 263.983 29ZM267.483 24.464C268.379 24.464 269.065 24.94 269.065 25.892C269.065 26.802 268.407 27.404 267.357 27.418H265.509V24.464H267.483ZM265.509 20.866H266.881C267.889 20.866 268.463 21.286 268.463 21.972C268.463 22.714 268.029 23.218 267.021 23.218H265.509V20.866ZM272.026 26.228C272.026 28.09 273.02 29.154 274.49 29.168C275.456 29.168 276.198 28.762 276.688 28.118L276.842 28.86C276.87 28.944 276.926 29 277.01 29H278.046C278.13 29 278.186 28.944 278.186 28.86V22.574C278.186 22.49 278.13 22.434 278.046 22.434H276.744C276.646 22.434 276.59 22.49 276.59 22.574L276.604 25.64C276.534 26.984 275.82 27.642 275.022 27.656C274.14 27.656 273.622 27.138 273.622 25.934V22.574C273.622 22.49 273.566 22.434 273.482 22.434H272.166C272.082 22.434 272.026 22.49 272.026 22.574V26.228ZM279.54 28.412C279.792 28.608 280.772 29.126 282.074 29.126C283.628 29.14 284.678 28.328 284.65 27.026C284.608 25.864 283.824 25.374 282.368 25.024C281.528 24.828 281.122 24.66 281.108 24.282C281.108 24.002 281.5 23.764 282.088 23.764C282.172 23.764 282.242 23.764 282.326 23.778C283.012 23.848 283.46 24.128 283.656 24.24C283.684 24.254 283.712 24.254 283.74 24.254C283.782 24.254 283.838 24.226 283.852 24.184L284.384 23.176C284.426 23.106 284.398 23.022 284.342 22.966C284.118 22.798 283.292 22.294 282.158 22.28C280.674 22.266 279.47 23.022 279.526 24.338C279.554 25.346 280.212 25.934 281.542 26.298C282.452 26.564 283.054 26.718 283.054 27.138C283.054 27.628 282.158 27.656 281.836 27.656C281.094 27.6 280.52 27.292 280.226 27.124C280.198 27.11 280.17 27.096 280.142 27.096C280.1 27.096 280.058 27.124 280.03 27.166L279.498 28.216C279.456 28.286 279.47 28.37 279.54 28.412ZM287.528 22.56C287.528 22.476 287.472 22.434 287.388 22.434H286.086C285.988 22.42 285.932 22.49 285.932 22.574V28.86C285.932 28.944 285.988 29 286.072 29H287.388C287.472 29 287.528 28.944 287.528 28.86V22.56ZM285.694 20.194C285.694 20.81 286.114 21.23 286.73 21.23C287.36 21.23 287.752 20.81 287.752 20.194C287.752 19.578 287.36 19.172 286.73 19.172C286.114 19.172 285.694 19.578 285.694 20.194ZM289.199 28.86C289.199 28.944 289.255 29 289.339 29H290.655C290.725 29 290.795 28.944 290.795 28.86V25.808C290.837 24.87 291.285 23.876 292.363 23.876C293.133 23.876 293.679 24.394 293.679 25.5V28.86C293.679 28.944 293.735 29 293.819 29H295.135C295.219 29 295.275 28.944 295.275 28.86V25.206C295.275 23.344 294.253 22.266 292.769 22.266C291.803 22.266 291.117 22.672 290.697 23.33L290.543 22.574C290.529 22.49 290.473 22.434 290.375 22.434H289.339C289.255 22.434 289.199 22.49 289.199 22.574V28.86ZM298.156 25.164C298.324 24.352 298.926 23.806 299.892 23.806C300.858 23.806 301.46 24.352 301.628 25.164H298.156ZM298.184 26.354H303.154C303.252 26.354 303.294 26.298 303.294 26.214C303.308 23.54 301.95 22.308 299.892 22.308C297.862 22.308 296.49 23.68 296.49 25.724C296.49 27.768 297.89 29.154 299.976 29.14C301.11 29.14 302.02 28.846 302.636 28.188C302.692 28.118 302.678 28.034 302.622 27.978L301.796 27.124C301.768 27.096 301.74 27.082 301.698 27.082C301.656 27.082 301.614 27.096 301.558 27.138C301.25 27.432 300.732 27.642 300.06 27.656C299.052 27.656 298.394 27.124 298.184 26.354ZM304.245 28.412C304.497 28.608 305.477 29.126 306.779 29.126C308.333 29.14 309.383 28.328 309.355 27.026C309.313 25.864 308.529 25.374 307.073 25.024C306.233 24.828 305.827 24.66 305.813 24.282C305.813 24.002 306.205 23.764 306.793 23.764C306.877 23.764 306.947 23.764 307.031 23.778C307.717 23.848 308.165 24.128 308.361 24.24C308.389 24.254 308.417 24.254 308.445 24.254C308.487 24.254 308.543 24.226 308.557 24.184L309.089 23.176C309.131 23.106 309.103 23.022 309.047 22.966C308.823 22.798 307.997 22.294 306.863 22.28C305.379 22.266 304.175 23.022 304.231 24.338C304.259 25.346 304.917 25.934 306.247 26.298C307.157 26.564 307.759 26.718 307.759 27.138C307.759 27.628 306.863 27.656 306.541 27.656C305.799 27.6 305.225 27.292 304.931 27.124C304.903 27.11 304.875 27.096 304.847 27.096C304.805 27.096 304.763 27.124 304.735 27.166L304.203 28.216C304.161 28.286 304.175 28.37 304.245 28.412ZM310.329 28.412C310.581 28.608 311.561 29.126 312.863 29.126C314.417 29.14 315.467 28.328 315.439 27.026C315.397 25.864 314.613 25.374 313.157 25.024C312.317 24.828 311.911 24.66 311.897 24.282C311.897 24.002 312.289 23.764 312.877 23.764C312.961 23.764 313.031 23.764 313.115 23.778C313.801 23.848 314.249 24.128 314.445 24.24C314.473 24.254 314.501 24.254 314.529 24.254C314.571 24.254 314.627 24.226 314.641 24.184L315.173 23.176C315.215 23.106 315.187 23.022 315.131 22.966C314.907 22.798 314.081 22.294 312.947 22.28C311.463 22.266 310.259 23.022 310.315 24.338C310.343 25.346 311.001 25.934 312.331 26.298C313.241 26.564 313.843 26.718 313.843 27.138C313.843 27.628 312.947 27.656 312.625 27.656C311.883 27.6 311.309 27.292 311.015 27.124C310.987 27.11 310.959 27.096 310.931 27.096C310.889 27.096 310.847 27.124 310.819 27.166L310.287 28.216C310.245 28.286 310.259 28.37 310.329 28.412ZM327.501 25.178C327.207 26.676 326.255 27.46 324.687 27.46C322.825 27.46 321.565 26.13 321.565 24.142C321.565 22.154 322.895 20.824 324.883 20.824C326.003 20.824 326.899 21.342 327.319 21.72C327.347 21.748 327.375 21.762 327.417 21.762C327.445 21.762 327.473 21.748 327.501 21.72L328.369 20.656C328.411 20.6 328.425 20.53 328.369 20.474C327.501 19.676 326.409 19.158 324.883 19.158C321.887 19.158 319.885 21.16 319.885 24.142C319.885 27.138 321.803 29.126 324.687 29.126C327.725 29.14 329.153 27.152 329.195 23.946C329.209 23.862 329.153 23.778 329.027 23.778H324.939C324.855 23.778 324.799 23.834 324.799 23.918V25.038C324.799 25.122 324.855 25.164 324.939 25.178H327.501ZM334.155 24.1C334.183 24.1 334.197 24.114 334.225 24.114C334.295 24.114 334.337 24.072 334.351 24.016L334.687 22.644C334.715 22.56 334.673 22.49 334.589 22.462C334.379 22.406 334.015 22.294 333.581 22.294C332.909 22.294 332.335 22.588 331.915 23.008L331.775 22.574C331.761 22.504 331.705 22.434 331.593 22.434H330.683C330.599 22.434 330.543 22.49 330.543 22.574V28.86C330.543 28.944 330.599 29 330.683 29H331.999C332.097 29 332.139 28.944 332.139 28.86V24.702C332.377 24.198 332.825 23.904 333.273 23.904C333.595 23.904 333.973 24.016 334.155 24.1ZM335.209 25.696C335.209 27.74 336.581 29.14 338.625 29.14C340.669 29.14 342.055 27.74 342.055 25.696C342.055 23.652 340.669 22.266 338.625 22.266C336.581 22.266 335.209 23.652 335.209 25.696ZM336.805 25.71C336.805 24.59 337.533 23.862 338.625 23.862C339.731 23.862 340.459 24.59 340.459 25.71C340.459 26.802 339.731 27.558 338.625 27.558C337.533 27.558 336.805 26.802 336.805 25.71ZM342.515 22.56L344.307 28.888C344.335 28.958 344.391 29 344.475 29H345.847C345.931 29 346.001 28.958 346.015 28.888L347.121 24.674L348.213 28.888C348.241 28.958 348.297 29 348.381 29H349.809C349.879 29 349.949 28.958 349.963 28.888L351.741 22.56C351.755 22.49 351.727 22.434 351.643 22.434H350.131C350.061 22.434 350.005 22.476 349.991 22.546L349.039 26.97L347.877 22.56C347.849 22.476 347.779 22.434 347.709 22.434H346.547C346.477 22.434 346.421 22.476 346.407 22.56L345.231 26.788L344.265 22.56C344.251 22.476 344.195 22.434 344.125 22.434H342.613C342.543 22.434 342.501 22.49 342.515 22.56ZM352.007 23.764C352.007 23.848 352.063 23.904 352.147 23.904H353.029V26.858C353.015 28.286 353.701 29.126 354.877 29.126C355.367 29.126 355.913 28.986 356.305 28.678C356.375 28.636 356.389 28.552 356.347 28.454L355.913 27.334C355.899 27.292 355.843 27.264 355.801 27.264C355.773 27.264 355.745 27.264 355.717 27.278C355.619 27.362 355.367 27.516 355.157 27.516C354.723 27.516 354.611 27.18 354.611 26.046V23.904H355.955C356.039 23.904 356.095 23.848 356.095 23.764V22.56C356.095 22.49 356.039 22.434 355.955 22.434H354.611V20.39C354.611 20.306 354.555 20.25 354.471 20.25H353.169C353.085 20.25 353.043 20.306 353.043 20.39L353.029 22.434H352.147C352.063 22.434 352.007 22.49 352.007 22.56V23.764ZM357.244 19.032V28.86C357.244 28.944 357.3 29 357.384 29H358.7C358.784 29 358.84 28.944 358.84 28.86V25.794C358.882 24.856 359.33 23.876 360.408 23.876C361.178 23.876 361.724 24.394 361.724 25.5V28.86C361.724 28.944 361.78 29 361.864 29H363.18C363.264 29 363.32 28.944 363.32 28.86V25.206C363.32 23.344 362.298 22.266 360.814 22.266C359.904 22.266 359.246 22.63 358.84 23.218V19.032C358.84 18.948 358.784 18.892 358.7 18.892H357.384C357.3 18.892 357.244 18.948 357.244 19.032Z" fill="black"/>
<path d="M249.565 51.212H253.513V52.88C253.513 52.952 253.561 53 253.633 53H254.833C254.905 53 254.953 52.952 254.953 52.88V51.212H255.781C255.853 51.212 255.901 51.164 255.901 51.092V50.096C255.901 50.024 255.853 49.976 255.781 49.976H254.953V44.804C254.953 44.732 254.905 44.684 254.833 44.684L253.453 44.672C253.381 44.672 253.309 44.72 253.273 44.78L249.481 51.056C249.421 51.152 249.457 51.212 249.565 51.212ZM253.513 46.772V49.976H251.581L253.513 46.772ZM257.261 52.28C257.261 52.772 257.597 53.12 258.101 53.12C258.593 53.12 258.929 52.772 258.929 52.28C258.929 51.776 258.593 51.44 258.101 51.44C257.597 51.44 257.261 51.776 257.261 52.28ZM263.341 52.892L265.225 48.824C265.465 48.296 265.621 47.888 265.621 47.264C265.621 45.632 264.529 44.552 262.909 44.552C261.277 44.552 260.209 45.62 260.209 47.264C260.209 48.86 261.265 49.904 262.873 49.928C262.981 49.928 263.113 49.916 263.233 49.88L261.865 52.832C261.817 52.928 261.865 53 261.961 53H263.161C263.245 53 263.305 52.952 263.341 52.892ZM262.909 48.56C262.141 48.56 261.625 48.032 261.625 47.252C261.625 46.484 262.153 45.968 262.909 45.968C263.689 45.968 264.205 46.484 264.205 47.252C264.205 48.032 263.677 48.56 262.909 48.56Z" fill="black"/>
<path d="M276.065 44.78C275.789 45.248 274.697 47.264 274.697 49.808C274.697 52.472 275.789 54.368 276.065 54.812C276.101 54.872 276.173 54.92 276.257 54.92H277.013C277.085 54.92 277.109 54.884 277.061 54.824C276.785 54.368 275.669 52.472 275.693 49.808C275.693 47.264 276.797 45.248 277.073 44.78C277.109 44.72 277.085 44.684 277.013 44.672H276.257C276.173 44.672 276.101 44.72 276.065 44.78ZM278.5 45.512C278.5 45.584 278.56 45.632 278.632 45.632H279.712V52.88C279.712 52.952 279.76 53 279.832 53H280.624C280.696 53 280.744 52.952 280.744 52.88V44.804C280.744 44.732 280.696 44.672 280.624 44.672H278.632C278.56 44.672 278.512 44.732 278.5 44.804V45.512ZM283.808 45.632H286.76C286.832 45.632 286.88 45.584 286.88 45.512V44.804C286.88 44.732 286.832 44.672 286.76 44.672H283.004C282.932 44.672 282.872 44.732 282.872 44.804L282.56 49.148C282.548 49.22 282.596 49.268 282.668 49.268H283.544C283.784 48.992 284.228 48.824 284.744 48.824C285.764 48.824 286.412 49.544 286.412 50.492C286.412 51.452 285.776 52.184 284.816 52.184C283.916 52.184 283.28 51.632 283.232 50.84C283.22 50.768 283.172 50.72 283.1 50.72H282.308C282.236 50.72 282.188 50.768 282.188 50.84C282.248 52.256 283.28 53.192 284.816 53.192C286.412 53.192 287.456 52.052 287.456 50.492C287.456 48.956 286.388 47.864 284.792 47.864C284.3 47.864 283.904 48.008 283.628 48.164L283.808 45.632ZM293.359 48.536C293.359 48.536 293.923 47.816 293.923 46.832C293.923 45.428 292.975 44.564 291.655 44.564C290.563 44.564 289.855 45.08 289.399 45.632C289.351 45.692 289.339 45.776 289.387 45.836L289.891 46.376C289.927 46.412 289.951 46.424 289.987 46.424C290.011 46.424 290.047 46.412 290.071 46.376C290.419 45.944 290.959 45.548 291.619 45.548C292.411 45.548 292.915 46.088 292.915 46.856C292.915 47.396 292.483 47.984 292.483 47.984C292.483 47.984 289.147 52.34 288.763 52.844C288.691 52.928 288.727 53 288.835 53H293.887C293.959 53 294.007 52.952 294.007 52.88V52.172C294.007 52.1 293.959 52.04 293.887 52.04H290.623C291.607 50.78 293.347 48.548 293.359 48.536ZM295.324 48.836C295.324 51.404 296.5 53.108 298.276 53.108C300.04 53.108 301.216 51.404 301.216 48.836C301.216 46.28 300.04 44.564 298.276 44.564C296.5 44.564 295.324 46.28 295.324 48.836ZM296.368 48.836C296.368 46.88 297.124 45.584 298.276 45.584C299.404 45.584 300.172 46.892 300.172 48.836C300.172 50.792 299.404 52.088 298.276 52.088C297.124 52.088 296.368 50.792 296.368 48.836ZM305.833 52.88C305.833 52.952 305.881 53 305.953 53H306.757C306.829 53 306.877 52.952 306.877 52.88V49.532H308.017L310.057 52.94C310.081 52.976 310.129 53 310.177 53H311.161C311.257 53 311.293 52.952 311.233 52.856L309.085 49.472C310.405 49.28 311.173 48.416 311.185 47.096C311.173 45.596 310.177 44.672 308.509 44.672C307.945 44.672 307.369 44.672 306.793 44.672C306.505 44.672 306.229 44.672 305.941 44.672C305.881 44.672 305.833 44.72 305.833 44.792V52.88ZM306.877 48.56V45.632H308.533C309.541 45.632 310.141 46.172 310.141 47.108C310.141 48.116 309.481 48.56 308.533 48.56H306.877ZM313.038 49.892C313.182 48.992 313.866 48.392 314.862 48.392C315.858 48.392 316.53 48.992 316.674 49.892H313.038ZM313.05 50.696H317.562C317.634 50.696 317.67 50.648 317.67 50.576C317.682 48.572 316.614 47.456 314.862 47.456C313.182 47.456 312.042 48.608 312.042 50.288C312.042 51.98 313.218 53.12 314.97 53.12C315.906 53.12 316.674 52.832 317.166 52.28C317.214 52.232 317.214 52.16 317.154 52.112L316.662 51.632C316.638 51.608 316.614 51.584 316.578 51.584C316.542 51.584 316.506 51.608 316.47 51.644C316.146 51.98 315.63 52.184 314.994 52.184C313.938 52.184 313.206 51.596 313.05 50.696ZM323.587 47.732C323.623 47.648 323.587 47.588 323.479 47.588L322.651 47.576C322.579 47.588 322.531 47.624 322.507 47.684L320.887 51.872L319.255 47.672C319.231 47.612 319.183 47.576 319.123 47.576H318.283C318.187 47.576 318.151 47.648 318.187 47.732L320.311 52.892C320.347 52.964 320.407 53 320.479 53H321.283C321.355 53 321.427 52.964 321.451 52.892L323.587 47.732ZM325.469 47.696C325.469 47.624 325.433 47.576 325.361 47.576H324.617C324.557 47.576 324.509 47.624 324.509 47.696V52.88C324.509 52.952 324.557 53 324.617 53H325.361C325.433 53 325.481 52.952 325.481 52.88L325.469 47.696ZM324.293 45.572C324.293 45.992 324.581 46.28 325.001 46.28C325.409 46.28 325.685 45.992 325.685 45.572C325.685 45.152 325.409 44.888 325.001 44.888C324.581 44.888 324.293 45.152 324.293 45.572ZM327.733 49.892C327.877 48.992 328.561 48.392 329.557 48.392C330.553 48.392 331.225 48.992 331.369 49.892H327.733ZM327.745 50.696H332.257C332.329 50.696 332.365 50.648 332.365 50.576C332.377 48.572 331.309 47.456 329.557 47.456C327.877 47.456 326.737 48.608 326.737 50.288C326.737 51.98 327.913 53.12 329.665 53.12C330.601 53.12 331.369 52.832 331.861 52.28C331.909 52.232 331.909 52.16 331.849 52.112L331.357 51.632C331.333 51.608 331.309 51.584 331.273 51.584C331.237 51.584 331.201 51.608 331.165 51.644C330.841 51.98 330.325 52.184 329.689 52.184C328.633 52.184 327.901 51.596 327.745 50.696ZM332.87 47.684L334.406 52.904C334.418 52.964 334.478 53 334.538 53H335.366C335.438 53 335.486 52.964 335.51 52.904L336.65 48.848L337.778 52.904C337.802 52.964 337.85 53 337.922 53H338.762C338.822 53 338.87 52.964 338.894 52.904L340.43 47.696C340.442 47.624 340.406 47.588 340.346 47.588H339.47C339.422 47.588 339.362 47.624 339.338 47.684L338.318 51.812L337.154 47.684C337.13 47.624 337.07 47.588 337.01 47.588H336.29C336.23 47.588 336.17 47.624 336.146 47.684L334.982 51.764L333.95 47.684C333.938 47.624 333.89 47.588 333.818 47.588H332.942C332.882 47.588 332.858 47.624 332.87 47.684ZM340.941 52.52C341.157 52.688 341.853 53.108 342.909 53.108C344.181 53.12 345.033 52.46 345.009 51.452C344.973 50.54 344.361 50.144 343.161 49.832C342.297 49.592 341.949 49.424 341.949 48.992C341.949 48.476 342.657 48.38 343.041 48.38C343.641 48.392 344.073 48.656 344.265 48.776C344.289 48.788 344.313 48.8 344.337 48.8C344.373 48.8 344.409 48.776 344.433 48.74L344.721 48.152C344.757 48.08 344.733 48.008 344.685 47.972C344.493 47.828 343.905 47.456 343.017 47.444C341.817 47.432 340.953 48.08 340.977 49.064C341.001 49.916 341.529 50.372 342.729 50.696C343.581 50.924 344.025 51.092 344.025 51.536C344.025 52.088 343.281 52.184 342.873 52.184C342.165 52.172 341.625 51.872 341.397 51.728C341.373 51.716 341.349 51.704 341.325 51.704C341.289 51.704 341.253 51.728 341.241 51.764L340.917 52.34C340.869 52.412 340.893 52.484 340.941 52.52ZM346.092 44.672C346.02 44.672 345.996 44.72 346.032 44.78C346.32 45.248 347.424 47.264 347.412 49.808C347.436 52.472 346.32 54.368 346.044 54.824C346.008 54.884 346.02 54.92 346.092 54.92H346.86C346.932 54.92 347.004 54.872 347.04 54.812C347.316 54.368 348.408 52.472 348.408 49.808C348.408 47.264 347.316 45.248 347.04 44.78C347.004 44.72 346.932 44.672 346.86 44.672H346.092Z" fill="#8A898E"/>
<path d="M238.276 49.3725C238.092 49.5503 238.008 49.8074 238.05 50.0596L238.68 53.5446C238.733 53.84 238.608 54.1389 238.361 54.3096C238.119 54.4867 237.796 54.5079 237.532 54.3663L234.395 52.73C234.286 52.6719 234.165 52.6408 234.041 52.6372H233.849C233.782 52.6471 233.717 52.6684 233.658 52.701L230.52 54.345C230.364 54.4229 230.189 54.4505 230.017 54.4229C229.597 54.3436 229.318 53.9441 229.386 53.5226L230.017 50.0376C230.058 49.7833 229.974 49.5248 229.791 49.3442L227.233 46.865C227.019 46.6575 226.945 46.3458 227.042 46.0646C227.137 45.7841 227.38 45.5794 227.672 45.5333L231.193 45.0226C231.46 44.995 231.695 44.8321 231.816 44.5913L233.367 41.4108C233.404 41.34 233.451 41.2748 233.509 41.2196L233.573 41.17C233.606 41.1332 233.644 41.1027 233.687 41.0779L233.764 41.0496L233.884 41H234.182C234.449 41.0276 234.683 41.187 234.806 41.425L236.378 44.5913C236.491 44.8229 236.711 44.9837 236.965 45.0226L240.486 45.5333C240.783 45.5758 241.032 45.7813 241.13 46.0646C241.223 46.3486 241.143 46.6603 240.925 46.865L238.276 49.3725Z" fill="#FEBB43"/>
<path d="M195.9 19.5606C195.82 20.0606 195.78 20.5606 195.78 21.0606C195.78 25.5606 199.42 29.1986 203.9 29.1986C204.4 29.1986 204.88 29.1406 205.38 29.0606V45.1986C205.38 51.9806 201.38 56.0006 194.58 56.0006H179.802C173 56.0006 169 51.9806 169 45.1986V30.4006C169 23.6006 173 19.5606 179.802 19.5606H195.9ZM196.302 31.7206C195.76 31.6606 195.222 31.9006 194.9 32.3406L190.062 38.6006L184.52 34.2406C184.18 33.9806 183.78 33.8786 183.38 33.9206C182.982 33.9806 182.622 34.1986 182.38 34.5186L176.462 42.2206L176.34 42.4006C176 43.0386 176.16 43.8586 176.76 44.3006C177.04 44.4806 177.34 44.6006 177.68 44.6006C178.142 44.6206 178.58 44.3786 178.86 44.0006L183.88 37.5386L189.58 41.8206L189.76 41.9386C190.4 42.2786 191.2 42.1206 191.66 41.5186L197.44 34.0606L197.36 34.1006C197.68 33.6606 197.74 33.1006 197.52 32.6006C197.302 32.1006 196.82 31.7606 196.302 31.7206ZM204.18 16C206.84 16 209 18.16 209 20.82C209 23.48 206.84 25.64 204.18 25.64C201.52 25.64 199.36 23.48 199.36 20.82C199.36 18.16 201.52 16 204.18 16Z" fill="black"/>
<defs>
<filter id="filter0_dddddd_19_86" x="0" y="389" width="377" height="253" filterUnits="userSpaceOnUse" color-interpolation-filters="sRGB">
<feFlood flood-opacity="0" result="BackgroundImageFix"/>
<feColorMatrix in="SourceAlpha" type="matrix" values="0 0 0 0 0 0 0 0 0 0 0 0 0 0 0 0 0 0 127 0" result="hardAlpha"/>
<feOffset dy="2.76726"/>
<feGaussianBlur stdDeviation="1.1069"/>
<feColorMatrix type="matrix" values="0 0 0 0 0 0 0 0 0 0 0 0 0 0 0 0 0 0 0.0196802 0"/>
<feBlend mode="normal" in2="BackgroundImageFix" result="effect1_dropShadow_19_86"/>
<feColorMatrix in="SourceAlpha" type="matrix" values="0 0 0 0 0 0 0 0 0 0 0 0 0 0 0 0 0 0 127 0" result="hardAlpha"/>
<feOffset dy="6.6501"/>
<feGaussianBlur stdDeviation="2.66004"/>
<feColorMatrix type="matrix" values="0 0 0 0 0 0 0 0 0 0 0 0 0 0 0 0 0 0 0.0282725 0"/>
<feBlend mode="normal" in2="effect1_dropShadow_19_86" result="effect2_dropShadow_19_86"/>
<feColorMatrix in="SourceAlpha" type="matrix" values="0 0 0 0 0 0 0 0 0 0 0 0 0 0 0 0 0 0 127 0" result="hardAlpha"/>
<feOffset dy="12.5216"/>
<feGaussianBlur stdDeviation="5.00862"/>
<feColorMatrix type="matrix" values="0 0 0 0 0 0 0 0 0 0 0 0 0 0 0 0 0 0 0.035 0"/>
<feBlend mode="normal" in2="effect2_dropShadow_19_86" result="effect3_dropShadow_19_86"/>
<feColorMatrix in="SourceAlpha" type="matrix" values="0 0 0 0 0 0 0 0 0 0 0 0 0 0 0 0 0 0 127 0" result="hardAlpha"/>
<feOffset dy="22.3363"/>
<feGaussianBlur stdDeviation="8.93452"/>
<feColorMatrix type="matrix" values="0 0 0 0 0 0 0 0 0 0 0 0 0 0 0 0 0 0 0.0417275 0"/>
<feBlend mode="normal" in2="effect3_dropShadow_19_86" result="effect4_dropShadow_19_86"/>
<feColorMatrix in="SourceAlpha" type="matrix" values="0 0 0 0 0 0 0 0 0 0 0 0 0 0 0 0 0 0 127 0" result="hardAlpha"/>
<feOffset dy="41.7776"/>
<feGaussianBlur stdDeviation="16.711"/>
<feColorMatrix type="matrix" values="0 0 0 0 0 0 0 0 0 0 0 0 0 0 0 0 0 0 0.0503198 0"/>
<feBlend mode="normal" in2="effect4_dropShadow_19_86" result="effect5_dropShadow_19_86"/>
<feColorMatrix in="SourceAlpha" type="matrix" values="0 0 0 0 0 0 0 0 0 0 0 0 0 0 0 0 0 0 127 0" result="hardAlpha"/>
<feOffset dy="100"/>
<feGaussianBlur stdDeviation="40"/>
<feColorMatrix type="matrix" values="0 0 0 0 0 0 0 0 0 0 0 0 0 0 0 0 0 0 0.07 0"/>
<feBlend mode="normal" in2="effect5_dropShadow_19_86" result="effect6_dropShadow_19_86"/>
<feBlend mode="normal" in="SourceGraphic" in2="effect6_dropShadow_19_86" result="shape"/>
</filter>
<filter id="filter1_dddddd_19_86" x="74" y="0" width="435" height="253" filterUnits="userSpaceOnUse" color-interpolation-filters="sRGB">
<feFlood flood-opacity="0" result="BackgroundImageFix"/>
<feColorMatrix in="SourceAlpha" type="matrix" values="0 0 0 0 0 0 0 0 0 0 0 0 0 0 0 0 0 0 127 0" result="hardAlpha"/>
<feOffset dy="2.76726"/>
<feGaussianBlur stdDeviation="1.1069"/>
<feColorMatrix type="matrix" values="0 0 0 0 0 0 0 0 0 0 0 0 0 0 0 0 0 0 0.0196802 0"/>
<feBlend mode="normal" in2="BackgroundImageFix" result="effect1_dropShadow_19_86"/>
<feColorMatrix in="SourceAlpha" type="matrix" values="0 0 0 0 0 0 0 0 0 0 0 0 0 0 0 0 0 0 127 0" result="hardAlpha"/>
<feOffset dy="6.6501"/>
<feGaussianBlur stdDeviation="2.66004"/>
<feColorMatrix type="matrix" values="0 0 0 0 0 0 0 0 0 0 0 0 0 0 0 0 0 0 0.0282725 0"/>
<feBlend mode="normal" in2="effect1_dropShadow_19_86" result="effect2_dropShadow_19_86"/>
<feColorMatrix in="SourceAlpha" type="matrix" values="0 0 0 0 0 0 0 0 0 0 0 0 0 0 0 0 0 0 127 0" result="hardAlpha"/>
<feOffset dy="12.5216"/>
<feGaussianBlur stdDeviation="5.00862"/>
<feColorMatrix type="matrix" values="0 0 0 0 0 0 0 0 0 0 0 0 0 0 0 0 0 0 0.035 0"/>
<feBlend mode="normal" in2="effect2_dropShadow_19_86" result="effect3_dropShadow_19_86"/>
<feColorMatrix in="SourceAlpha" type="matrix" values="0 0 0 0 0 0 0 0 0 0 0 0 0 0 0 0 0 0 127 0" result="hardAlpha"/>
<feOffset dy="22.3363"/>
<feGaussianBlur stdDeviation="8.93452"/>
<feColorMatrix type="matrix" values="0 0 0 0 0 0 0 0 0 0 0 0 0 0 0 0 0 0 0.0417275 0"/>
<feBlend mode="normal" in2="effect3_dropShadow_19_86" result="effect4_dropShadow_19_86"/>
<feColorMatrix in="SourceAlpha" type="matrix" values="0 0 0 0 0 0 0 0 0 0 0 0 0 0 0 0 0 0 127 0" result="hardAlpha"/>
<feOffset dy="41.7776"/>
<feGaussianBlur stdDeviation="16.711"/>
<feColorMatrix type="matrix" values="0 0 0 0 0 0 0 0 0 0 0 0 0 0 0 0 0 0 0.0503198 0"/>
<feBlend mode="normal" in2="effect4_dropShadow_19_86" result="effect5_dropShadow_19_86"/>
<feColorMatrix in="SourceAlpha" type="matrix" values="0 0 0 0 0 0 0 0 0 0 0 0 0 0 0 0 0 0 127 0" result="hardAlpha"/>
<feOffset dy="100"/>
<feGaussianBlur stdDeviation="40"/>
<feColorMatrix type="matrix" values="0 0 0 0 0 0 0 0 0 0 0 0 0 0 0 0 0 0 0.07 0"/>
<feBlend mode="normal" in2="effect5_dropShadow_19_86" result="effect6_dropShadow_19_86"/>
<feBlend mode="normal" in="SourceGraphic" in2="effect6_dropShadow_19_86" result="shape"/>
</filter>
</defs>
</svg>
